# xmcd
#
# Track frame offsets: 
#        150
#        18538
#        31195
#        50363
#        69677
#        80973
#        96970
#        112973
#        131522
#        146629
#        164163
#        186333
#
# Disc length: 2751 seconds
#
# Revision: 0
# Processed by: cddbd v1.5.2PL0 Copyright (c) Steve Scherf et al.
# Submitted via: ExactAudioCopyFreeDBPlugin 1.0
#
DISCID=af0abd0c
DTITLE=BEGIN - Sugar Cane Cable Network
DYEAR=2015
DGENRE=JPop
TTITLE0=Blessing Rain
TTITLE1=アサイーボウル
TTITLE2=海の声
TTITLE3=憧れのアンダー
TTITLE4=アロハの花
TTITLE5=僕だけの愛で出来たうた
TTITLE6=黄昏のリベルダージ
TTITLE7=僕は嫌って言う
TTITLE8=Rogan' Roll
TTITLE9=サーファーに傘は要らないのさ
TTITLE10=ハンドル
TTITLE11=朝焼けの情景
EXTD=
EXTT0=
EXTT1=
EXTT2=
EXTT3=
EXTT4=
EXTT5=
EXTT6=
EXTT7=
EXTT8=
EXTT9=
EXTT10=
EXTT11=
PLAYORDER=
